HIERARCHY
ROOT hip
{
  OFFSET 0.00112043 5.09927 -9.65472
  CHANNELS 6 Xposition Yposition Zposition Zrotation Xrotation Yrotation
  JOINT abdomen
  {
    OFFSET 0 -1.186 -1.5018
    CHANNELS 3 Zrotation Xrotation Yrotation
    JOINT abdomen2
    {
      OFFSET 0 9.964 0.2134
      CHANNELS 3 Zrotation Xrotation Yrotation
      JOINT chest
      {
        OFFSET 0 13.134 -3.2573
        CHANNELS 3 Zrotation Xrotation Yrotation
        JOINT neck
        {
          OFFSET 0 20.686 -1.6905
          CHANNELS 3 Zrotation Xrotation Yrotation
          JOINT head
          {
            OFFSET 0 7.238 -0.1237
            CHANNELS 3 Zrotation Xrotation Yrotation
            End Site
            {
              OFFSET 0 0 0
            }
          }
        }
        JOINT lCollar
        {
          OFFSET 1.7069 20.075 5.0056
          CHANNELS 3 Zrotation Xrotation Yrotation
          JOINT lShldr
          {
            OFFSET 13.6458 -0.047 -4.849
            CHANNELS 3 Zrotation Xrotation Yrotation
            JOINT lForeArm
            {
              OFFSET 28.3255 -0.9759 2.2888
              CHANNELS 3 Zrotation Xrotation Yrotation
              JOINT lHand
              {
                OFFSET 22.1583 -0.53 10.8316
                CHANNELS 3 Zrotation Xrotation Yrotation
                JOINT lThumb1
                {
                  OFFSET 0.786 0.112 2.5817
                  CHANNELS 3 Zrotation Xrotation Yrotation
                  JOINT lThumb2
                  {
                    OFFSET 0.3601 -0.878 4.2331
                    CHANNELS 3 Zrotation Xrotation Yrotation
                    JOINT lThumb2_End
                    {
                      OFFSET 1.8127 -1.216 2.2227
                      CHANNELS 3 Zrotation Xrotation Yrotation
                      End Site
                      {
                        OFFSET 0.0181 -0.0122 0.0222
                      }
                    }
                  }
                }
                JOINT lCarpal1
                {
                  OFFSET 0.9571 1.114 1.7695
                  CHANNELS 3 Zrotation Xrotation Yrotation
                  JOINT lIndex1
                  {
                    OFFSET 4.1246 0.487 4.1451
                    CHANNELS 3 Zrotation Xrotation Yrotation
                    JOINT lIndex2
                    {
                      OFFSET 3.4052 -1.454 2.7682
                      CHANNELS 3 Zrotation Xrotation Yrotation
                      JOINT lIndex2_End
                      {
                        OFFSET 1.4531 -1.795 1.2713
                        CHANNELS 3 Zrotation Xrotation Yrotation
                        End Site
                        {
                          OFFSET 0.0145 -0.0179 0.0127
                        }
                      }
                    }
                  }
                  JOINT lMid1
                  {
                    OFFSET 5.6954 0.21 2.1184
                    CHANNELS 3 Zrotation Xrotation Yrotation
                    JOINT lMid2
                    {
                      OFFSET 3.9766 -1.54 2.3863
                      CHANNELS 3 Zrotation Xrotation Yrotation
                      JOINT lMid2_End
                      {
                        OFFSET 1.4042 -1.926 1.125
                        CHANNELS 3 Zrotation Xrotation Yrotation
                        End Site
                        {
                          OFFSET 0.014 -0.0193 0.0113
                        }
                      }
                    }
                  }
                }
                JOINT lCarpal2
                {
                  OFFSET 2.0956 0.66 -0.3894
                  CHANNELS 3 Zrotation Xrotation Yrotation
                  JOINT lRing1
                  {
                    OFFSET 5.0395 -0.09 2.4971
                    CHANNELS 3 Zrotation Xrotation Yrotation
                    JOINT lRing2
                    {
                      OFFSET 3.7921 -1.552 1.4806
                      CHANNELS 3 Zrotation Xrotation Yrotation
                      JOINT lRing2_End
                      {
                        OFFSET 1.4655 -1.808 0.9609
                        CHANNELS 3 Zrotation Xrotation Yrotation
                        End Site
                        {
                          OFFSET 0.0147 -0.0181 0.0096
                        }
                      }
                    }
                  }
                  JOINT lPinky1
                  {
                    OFFSET 4.9141 -1.269 0.3591
                    CHANNELS 3 Zrotation Xrotation Yrotation
                    JOINT lPinky2
                    {
                      OFFSET 3.1477 -1.685 0.8462
                      CHANNELS 3 Zrotation Xrotation Yrotation
                      JOINT lPinky2_End
                      {
                        OFFSET 0.8055 -1.585 0.7955
                        CHANNELS 3 Zrotation Xrotation Yrotation
                        End Site
                        {
                          OFFSET 0.0081 -0.0158 0.008
                        }
                      }
                    }
                  }
                }
              }
            }
          }
        }
        JOINT rCollar
        {
          OFFSET -1.7069 20.075 5.0056
          CHANNELS 3 Zrotation Xrotation Yrotation
          JOINT rShldr
          {
            OFFSET -13.6458 -0.047 -4.849
            CHANNELS 3 Zrotation Xrotation Yrotation
            JOINT rForeArm
            {
              OFFSET -28.3255 -0.9759 2.2888
              CHANNELS 3 Zrotation Xrotation Yrotation
              JOINT rHand
              {
                OFFSET -22.1583 -0.53 10.8316
                CHANNELS 3 Zrotation Xrotation Yrotation
                JOINT rThumb1
                {
                  OFFSET -0.786 0.112 2.5817
                  CHANNELS 3 Zrotation Xrotation Yrotation
                  JOINT rThumb2
                  {
                    OFFSET -0.3601 -0.878 4.2331
                    CHANNELS 3 Zrotation Xrotation Yrotation
                    JOINT rThumb2_End
                    {
                      OFFSET -1.8127 -1.216 2.2227
                      CHANNELS 3 Zrotation Xrotation Yrotation
                      End Site
                      {
                        OFFSET -0.0181 -0.0122 0.0222
                      }
                    }
                  }
                }
                JOINT rCarpal1
                {
                  OFFSET -0.9571 1.114 1.7695
                  CHANNELS 3 Zrotation Xrotation Yrotation
                  JOINT rIndex1
                  {
                    OFFSET -4.1246 0.487 4.1451
                    CHANNELS 3 Zrotation Xrotation Yrotation
                    JOINT rIndex2
                    {
                      OFFSET -3.4052 -1.454 2.7682
                      CHANNELS 3 Zrotation Xrotation Yrotation
                      JOINT rIndex2_End
                      {
                        OFFSET -1.4531 -1.795 1.2713
                        CHANNELS 3 Zrotation Xrotation Yrotation
                        End Site
                        {
                          OFFSET -0.0145 -0.018 0.0127
                        }
                      }
                    }
                  }
                  JOINT rMid1
                  {
                    OFFSET -5.6954 0.21 2.1184
                    CHANNELS 3 Zrotation Xrotation Yrotation
                    JOINT rMid2
                    {
                      OFFSET -3.9766 -1.54 2.3863
                      CHANNELS 3 Zrotation Xrotation Yrotation
                      JOINT rMid2_End
                      {
                        OFFSET -1.4042 -1.926 1.125
                        CHANNELS 3 Zrotation Xrotation Yrotation
                        End Site
                        {
                          OFFSET -0.014 -0.0193 0.0113
                        }
                      }
                    }
                  }
                }
                JOINT rCarpal2
                {
                  OFFSET -2.0956 0.66 -0.3894
                  CHANNELS 3 Zrotation Xrotation Yrotation
                  JOINT rRing1
                  {
                    OFFSET -5.0395 -0.09 2.4971
                    CHANNELS 3 Zrotation Xrotation Yrotation
                    JOINT rRing2
                    {
                      OFFSET -3.7921 -1.552 1.4806
                      CHANNELS 3 Zrotation Xrotation Yrotation
                      JOINT rRing2_End
                      {
                        OFFSET -1.4655 -1.808 0.9609
                        CHANNELS 3 Zrotation Xrotation Yrotation
                        End Site
                        {
                          OFFSET -0.0147 -0.0181 0.0096
                        }
                      }
                    }
                  }
                  JOINT rPinky1
                  {
                    OFFSET -4.9141 -1.269 0.3592
                    CHANNELS 3 Zrotation Xrotation Yrotation
                    JOINT rPinky2
                    {
                      OFFSET -3.1477 -1.685 0.8462
                      CHANNELS 3 Zrotation Xrotation Yrotation
                      JOINT rPinky2_End
                      {
                        OFFSET -0.8055 -1.585 0.7955
                        CHANNELS 3 Zrotation Xrotation Yrotation
                        End Site
                        {
                          OFFSET -0.0081 -0.0158 0.008
                        }
                      }
                    }
                  }
                }
              }
            }
          }
        }
      }
    }
  }
  JOINT lThigh
  {
    OFFSET 8.367 -8.2066 0.5982
    CHANNELS 3 Zrotation Xrotation Yrotation
    JOINT lShin
    {
      OFFSET 2.1923 -43.463 -0.4932
      CHANNELS 3 Zrotation Xrotation Yrotation
      JOINT lFoot
      {
        OFFSET 0.7333 -45.8593 -2.6451
        CHANNELS 3 Zrotation Xrotation Yrotation
        End Site
        {
          OFFSET 2.6618 -4.2699 12.3931
        }
      }
    }
  }
  JOINT rThigh
  {
    OFFSET -8.367 -8.2066 0.5982
    CHANNELS 3 Zrotation Xrotation Yrotation
    JOINT rShin
    {
      OFFSET -2.1923 -43.463 -0.4931
      CHANNELS 3 Zrotation Xrotation Yrotation
      JOINT rFoot
      {
        OFFSET -0.7333 -45.8593 -2.6451
        CHANNELS 3 Zrotation Xrotation Yrotation
        End Site
        {
          OFFSET -2.6618 -4.2699 12.3931
        }
      }
    }
  }
}
MOTION
Frames:	4
Frame Time:	0.0333333
0 91.7903 2.51682 0 0 -0 0 0 -0 0 0 -0 0 0 -0 0 0 -0 0 0 -0 0 0 -0 1.66051 0.0835086 5.75766 -0.0175111 0.895433 15.7816 7.95139e-016 -1.98785e-016 -0 5.46658e-016 -3.97569e-016 -0 5.96354e-016 0 -0 3.97569e-016 1.98785e-016 9.54166e-015 1.49089e-016 -3.97569e-016 -0 6.4605e-016 0 3.18055e-015 5.96354e-016 0 3.18055e-015 8.94531e-016 -1.98785e-016 6.36111e-015 6.4605e-016 0 3.18055e-015 5.96354e-016 0 3.18055e-015 8.94531e-016 -1.98785e-016 6.36111e-015 1.49089e-016 -3.97569e-016 -0 6.4605e-016 0 3.18055e-015 5.96354e-016 0 3.18055e-015 8.94531e-016 -1.98785e-016 6.36111e-015 6.4605e-016 0 3.18055e-015 5.96354e-016 0 3.18055e-015 8.94531e-016 -1.98785e-016 6.36111e-015 0 0 -0 -1.4496 0.0636048 -5.0245 -1.74811 1.20616 -16.8394 -1.19271e-015 1.98785e-016 -3.18055e-015 -3.97569e-016 1.98785e-016 -3.18055e-015 -2.98177e-016 1.98785e-016 -3.18055e-015 -2.98177e-016 3.97569e-016 -0 4.96962e-016 0 -6.36111e-015 -9.93923e-017 3.97569e-016 -0 -8.94531e-016 5.96354e-016 -0 -3.97569e-016 3.97569e-016 -0 -9.93923e-017 3.97569e-016 -0 -8.94531e-016 5.96354e-016 -0 -3.97569e-016 3.97569e-016 -0 4.96962e-016 0 -6.36111e-015 -9.93923e-017 3.97569e-016 -0 -8.94531e-016 5.96354e-016 -0 -3.97569e-016 3.97569e-016 -0 -9.93923e-017 3.97569e-016 -0 -8.94531e-016 5.96354e-016 -0 -3.97569e-016 3.97569e-016 -0 -4.66111 -0.998717 0.12318 0.00986924 1.54847 0.176523 4.65186 -0.572283 -0.254274 4.66111 -0.998765 -0.123176 -0.00986867 1.54869 -0.176537 -4.65186 -0.572453 0.25427 
42.208 91.2619 28.2897 0 10.9996 -0 -0.244055 0.0634287 -0.163475 -0.487928 0.12755 -0.326678 -0.487928 0.127553 -0.326679 -0.000446119 0.463483 -0.000299866 2.22608e-007 0.305996 5.86551e-008 -20.2641 12.244 15.5451 -61.9382 -0.673983 9.838 -7.04691 3.7246 21.3829 -2.64218 4.98835 -6.92611 -7.95139e-016 3.18055e-015 9.54166e-015 -1.59028e-015 3.18055e-015 -0 4.41391e-031 3.97569e-015 -6.36111e-015 -7.95139e-016 -1.59028e-015 9.54166e-015 0 1.59028e-015 -0 -7.95139e-016 3.18055e-015 -0 -1.59028e-015 3.97569e-015 -0 0 1.59028e-015 -0 -7.95139e-016 3.18055e-015 -0 -1.59028e-015 3.97569e-015 -0 -7.95139e-016 -1.59028e-015 9.54166e-015 0 1.59028e-015 -0 -7.95139e-016 3.18055e-015 -0 -1.59028e-015 3.97569e-015 -0 0 1.59028e-015 -0 -7.95139e-016 3.18055e-015 -0 -1.59028e-015 3.97569e-015 -0 25.6781 9.21024 -16.8287 57.2507 -0.253927 -9.27554 2.92939 4.19165 -21.3328 3.81006 5.19531 5.93605 3.99174e-007 -4.77332e-007 1.61406e-007 6.22935e-006 -2.58788e-006 -6.64248e-006 7.95139e-016 -2.38542e-015 3.18055e-015 -0 -7.95139e-016 -0 3.99174e-007 -4.77332e-007 1.61406e-007 6.22935e-006 -2.58788e-006 -6.64248e-006 1.59028e-015 -2.38542e-015 -6.36111e-015 3.99174e-007 -4.77332e-007 1.61406e-007 6.22935e-006 -2.58788e-006 -6.64248e-006 1.59028e-015 -2.38542e-015 -6.36111e-015 -0 -7.95139e-016 -0 3.99174e-007 -4.77332e-007 1.61406e-007 6.22935e-006 -2.58788e-006 -6.64248e-006 1.59028e-015 -2.38542e-015 -6.36111e-015 3.99174e-007 -4.77332e-007 1.61406e-007 6.22935e-006 -2.58788e-006 -6.64248e-006 1.59028e-015 -2.38542e-015 -6.36111e-015 2.17022 -18.3301 -6.85656 -12.5096 9.63549 3.79507 -2.60245 -3.8249 18.3016 1.7686 -13.7609 -10.2082 5.13175 1.58514 -0.161268 2.79157 -3.44597 -17.9785 
42.2074 91.1992 28.3099 0 12.051 -0 -0.2429 -0.168774 -0.164228 -0.486286 -0.33684 -0.329171 -0.486286 -0.336838 -0.329171 -1.47892e-005 0.923267 -9.68561e-006 -0.055052 0.432177 0.0113784 -20.7082 12.5865 16.0771 -61.5132 -0.63075 9.87025 -6.85433 3.72252 21.3809 -2.72551 5.23902 -7.32356 -6.40467e-007 -1.85029e-007 -1.02759e-007 -9.56235e-007 -2.27554e-006 2.05636e-006 -1.15834e-006 -2.05636e-006 -2.27554e-006 -7.95139e-016 0 -6.36111e-015 -6.40467e-007 -1.85029e-007 -1.02759e-007 -9.56235e-007 -2.27554e-006 2.05636e-006 -1.15834e-006 -2.05636e-006 -2.27554e-006 -6.40467e-007 -1.85029e-007 -1.02759e-007 -9.56235e-007 -2.27554e-006 2.05636e-006 -1.15834e-006 -2.05636e-006 -2.27554e-006 -7.95139e-016 0 -6.36111e-015 -6.40467e-007 -1.85029e-007 -1.02759e-007 -9.56235e-007 -2.27554e-006 2.05636e-006 -1.15834e-006 -2.05636e-006 -2.27554e-006 -6.40467e-007 -1.85029e-007 -1.02759e-007 -9.56235e-007 -2.27554e-006 2.05636e-006 -1.15834e-006 -2.05636e-006 -2.27554e-006 26.1233 9.54204 -17.3875 56.7812 -0.200726 -9.29203 2.74062 4.18213 -21.3325 3.95065 5.41556 6.32616 1.59028e-015 -1.59028e-015 1.27222e-014 -7.95139e-016 7.95139e-016 6.36111e-015 7.95139e-016 -7.95139e-016 1.27222e-014 7.95139e-016 -3.18055e-015 3.18055e-015 -7.95139e-016 1.59028e-015 6.36111e-015 7.95139e-016 -7.95139e-016 9.54166e-015 -0 0 3.18055e-015 -7.95139e-016 1.59028e-015 6.36111e-015 7.95139e-016 -7.95139e-016 9.54166e-015 -0 0 3.18055e-015 7.95139e-016 -3.18055e-015 3.18055e-015 -7.95139e-016 1.59028e-015 6.36111e-015 7.95139e-016 -7.95139e-016 9.54166e-015 -0 0 3.18055e-015 -7.95139e-016 1.59028e-015 6.36111e-015 7.95139e-016 -7.95139e-016 9.54166e-015 -0 0 3.18055e-015 2.23434 -19.5699 -6.73694 -12.6269 9.82338 3.83012 -2.61675 -3.81094 18.3023 1.78361 -14.8854 -10.2421 5.13189 1.6111 -0.162505 2.79158 -3.45538 -17.9782 
42.2069 91.135 28.3291 0 13.1039 -0 -0.241638 -0.401367 -0.164904 -0.484448 -0.802032 -0.331511 -0.484448 -0.802033 -0.331511 -3.67811e-005 1.38367 -2.61509e-005 -0.110143 0.558379 0.0228814 -21.1567 12.9253 16.6126 -61.0881 -0.587278 9.90221 -6.66174 3.72049 21.3789 -2.80717 5.49034 -7.72092 -0 -7.95139e-016 -0 -1.59028e-015 7.95139e-016 -0 -7.95139e-016 -7.95139e-016 3.18055e-015 -0 -7.95139e-016 -0 -7.95139e-016 -7.95139e-016 -0 7.95139e-016 -7.95139e-016 3.18055e-015 -3.18055e-015 0 -0 -7.95139e-016 -7.95139e-016 -0 7.95139e-016 -7.95139e-016 3.18055e-015 -3.18055e-015 0 -0 -0 -7.95139e-016 -0 -7.95139e-016 -7.95139e-016 -0 7.95139e-016 -7.95139e-016 3.18055e-015 -3.18055e-015 0 -0 -7.95139e-016 -7.95139e-016 -0 7.95139e-016 -7.95139e-016 3.18055e-015 -3.18055e-015 0 -0 26.5721 9.86968 -17.9503 56.3115 -0.147386 -9.30808 2.55181 4.17282 -21.3323 4.08986 5.63685 6.71595 -4.01616e-007 4.89172e-007 -1.32129e-007 7.95139e-016 0 -6.36111e-015 7.95139e-016 -7.95139e-016 -9.54166e-015 -1.59028e-015 -7.95139e-016 3.18055e-015 -4.01616e-007 4.89172e-007 -1.32129e-007 7.95139e-016 -7.95139e-016 -1.27222e-014 7.95139e-016 7.95139e-016 -9.54166e-015 -4.01616e-007 4.89172e-007 -1.32129e-007 7.95139e-016 -7.95139e-016 -1.27222e-014 7.95139e-016 7.95139e-016 -9.54166e-015 -1.59028e-015 -7.95139e-016 3.18055e-015 -4.01616e-007 4.89172e-007 -1.32129e-007 7.95139e-016 -7.95139e-016 -1.27222e-014 7.95139e-016 7.95139e-016 -9.54166e-015 -4.01616e-007 4.89172e-007 -1.32129e-007 7.95139e-016 -7.95139e-016 -1.27222e-014 7.95139e-016 7.95139e-016 -9.54166e-015 2.30111 -20.8124 -6.61488 -12.7436 10.0124 3.8655 -2.63134 -3.79756 18.3031 1.79795 -16.0125 -10.276 5.13204 1.63885 -0.163791 2.79149 -3.46566 -17.9779 
